# xmcd
#
# Track frame offsets: 
#        150
#        16350
#        27750
#        44850
#        62400
#        78150
#        90000
#        105450
#        116700
#        134250
#        151903
#        164503
#        183553
#        201553
#        218803
#        236053
#        261853
#        284953
#
# Disc length: 4019 seconds
#
# Revision: 0
# Processed by: cddbd v1.5.2PL0 Copyright (c) Steve Scherf et al.
# Submitted via: ExactAudioCopy v1.3
#
DISCID=010fb112
DTITLE=Lorenz Zadro - Blues Chameleon (Remastered)
DYEAR=2020
DGENRE=Blues
TTITLE0=Who Looks for Something (feat. Ciosi) [Remastered]
TTITLE1=My Grandfather (feat. Ciosi) [Remastered]
TTITLE2=Alabama Blues (feat. Ciosi) [Remastered]
TTITLE3=Crossroads (feat. Eddie Wilson) [Remastered]
TTITLE4=Liza's Eyes Blues (feat. Eddie Wilson) [Remastered]
TTITLE5=Rollin' and Tumblin' (feat. Eddie Wilson) [Remastered]
TTITLE6=Baby Please Don't Go (feat. Leo "Bud" Welch) [Remastered]
TTITLE7=Me and My Lord (feat. Leo "Bud" Welch) [Remastered]
TTITLE8=I'm Talking About the Blues (feat. Manuel Tavoni) [Remastered]
TTITLE9=You Already Know It (feat. Manuel Tavoni) [Remastered]
TTITLE10=Aces of Spades (feat. Mora and Bronski) [Remastered]
TTITLE11=Anarcos (feat. Mora and Bronski) [Remastered]
TTITLE12=Appuntamento al buio (feat. Mora and Bronski) [Remastered]
TTITLE13=Mannish Boy (feat. Mora and Bronski) [Remastered]
TTITLE14=I just go (feat. Rowland Jones) [Remastered]
TTITLE15=Get up, Get Down! (feat. Sarasota Slim) [Remastered]
TTITLE16=The Bridge (feat. True Blues Band) [Remastered]
TTITLE17=Sesso barra amore (feat. Laurino) [Remastered]
EXTD=
EXTT0=
EXTT1=
EXTT2=
EXTT3=
EXTT4=
EXTT5=
EXTT6=
EXTT7=
EXTT8=
EXTT9=
EXTT10=
EXTT11=
EXTT12=
EXTT13=
EXTT14=
EXTT15=
EXTT16=
EXTT17=
PLAYORDER=
